<svg width="32" height="32" viewBox="0 0 32 32" fill="none" xmlns="http://www.w3.org/2000/svg">
  <rect width="32" height="32" rx="8" fill="#8A2BE2"/>
  
  <path d="M24 10H10C8.89543 10 8 10.8954 8 12V22C8 23.1046 8.89543 24 10 24H24C25.1046 24 26 23.1046 26 22V12C26 10.8954 25.1046 10 24 10Z" fill="black"/>
  
  <path d="M17.5 13V14.2C17.5 14.5 17.3 14.7 17 14.8C16.3 14.9 15.7 15.2 15.2 15.6C14.8 16 14.5 16.6 14.5 17.2C14.5 17.8 14.8 18.4 15.2 18.8C15.7 19.2 16.3 19.5 17 19.6V21H18.5V19.7C19.2 19.6 19.8 19.3 20.3 18.9C20.8 18.5 21.1 17.9 21.1 17.3H19.6C19.6 17.6 19.4 17.9 19.1 18.1C18.9 18.3 18.5 18.4 18.1 18.4C17.3 18.4 16.9 18.1 16.9 17.5C16.9 16.9 17.3 16.6 18.1 16.6H18.5V15.4C19.2 15.3 19.7 15 20.2 14.6C20.7 14.2 21 13.6 21 13H19.5C19.5 13.3 19.3 13.5 19.1 13.7C18.9 13.9 18.6 14 18.2 14C17.7 14 17.4 13.7 17.4 13.2H17.5ZM17.5 13H17.4V11H18.5V12.8C18.2 12.8 18 12.9 17.5 13Z" fill="#8A2BE2"/>
  
  <rect x="22" y="15" width="6" height="4" rx="1" fill="#8A2BE2"/>
</svg>
